<svg xmlns="http://www.w3.org/2000/svg" viewBox="0 0 640 512"><path d="M256 256A128 128 0 1 0 128 384 128 128 0 0 0 256 256zm-149.3 58.7v-37.3H69.3A5.3 5.3 0 0 1 64 272v-32a5.3 5.3 0 0 1 5.3-5.3h37.3v-37.3A5.3 5.3 0 0 1 112 192h32a5.3 5.3 0 0 1 5.3 5.3v37.3h37.3A5.3 5.3 0 0 1 192 240v32a5.3 5.3 0 0 1 -5.3 5.3h-37.3v37.3A5.3 5.3 0 0 1 144 320h-32a5.3 5.3 0 0 1 -5.3-5.3zm532.8 139.9L522.6 11.9A16 16 0 0 0 503 .6l-15.5 4.1a16 16 0 0 0 -11.8 16.5c-11.5 7.4-64.2 21.6-77.9 20.9a16 16 0 0 0 -18.5-8.4l-11.3 3V32c0-17.7-14.3-32-40-32H88c-9.7 0-24 14.3-24 32v77.6c14.9-6.6 31.1-10.2 48-11.9V48h80v61.6A160.4 160.4 0 0 1 242 144h78v224h-78a160.4 160.4 0 0 1 -50 34.4V464h-80v-49.6c-16.9-1.7-33.1-5.4-48-11.9V480c0 17.7 14.3 32 24 32h240c25.7 0 40-14.3 40-32V115.9l101.5 384.2a16 16 0 0 0 19.6 11.3l15.5-4.1a16 16 0 0 0 11.8-16.5c11.5-7.4 64.2-21.6 77.9-20.9a16 16 0 0 0 18.5 8.4l15.5-4.1a16.1 16.1 0 0 0 11.3-19.6zM320 464h-80v-48h80zm0-368h-80V48h80zm186 355L408.7 81.7C425.5 79.9 469.5 68.3 486 61l97.3 369.3c-16.8 1.8-60.7 13.4-77.3 20.7z"/></svg>