<svg xmlns="http://www.w3.org/2000/svg" viewBox="0 0 512 512"><path d="M489.2 255.9c41-40.2 24.3-102.5-31.1-116.6C473.4 85.3 427.9 38 372.6 53.8C358.4-1.8 295.3-17.9 256 22.6C242.4 8.7 227 0 205.7 0c-29.4 0-57.1 17.9-66.3 53.8c-55-15.7-101 31-85.5 85.5c-55.3 14.1-72.3 76.4-31.1 116.6c-40.9 40.1-24.4 102.5 31.1 116.6c-15.5 54.5 30.6 101.2 85.5 85.5c14.3 56.2 77 71.6 116.6 31.2c39.5 40.4 102.3 24.8 116.6-31.2c55 15.7 100.9-31.2 85.5-85.5c55.3-14.1 72.3-76.4 31.1-116.6zM458 292.5c11.1 10.5 6 29.3-8.7 32.8l-50.9 13 14.3 50.4c4.1 14.5-9.6 28.2-24.1 24.1l-50.4-14.4-13 50.9c-3.5 14.8-22.6 19.6-32.8 8.7L256 420.6 219.4 458c-10.3 10.8-29.2 6.4-32.8-8.7l-13-50.9-50.4 14.4c-14.5 4.1-28.2-9.6-24.1-24.1l14.3-50.4-50.9-13c-14.6-3.5-19.8-22.2-8.7-32.8l37.4-36.6-37.4-36.6c-11.1-10.5-6-29.3 8.7-32.8l50.9-13-14.3-50.4c-4.1-14.5 9.6-28.2 24.1-24.1l50.4 14.4 13-50.9c3.5-14.5 22.5-19.5 32.8-8.7L256 91.5l36.6-37.7c10.4-11 29.3-5.7 32.8 8.7l13 50.9 50.4-14.4c14.5-4.1 28.2 9.6 24.1 24.1l-14.3 50.4 50.9 13c14.6 3.5 19.8 22.2 8.7 32.8l-37.4 36.6 37.4 36.6z"/></svg>