<svg xmlns="http://www.w3.org/2000/svg" viewBox="0 0 640 512"><path d="M226.8 342C199 342 192 352 160 352c-32 0-39-10-66.8-10C21.1 342 0 403 0 434.7V472c0 22.1 17.9 40 40 40h240c22.1 0 40-17.9 40-40v-37.3c0-42.7-30.6-92.7-93.2-92.7zM272 464H48v-29.3c0-14 8.2-44.7 45.2-44.7c17.2 0 29.6 10 66.8 10c37.4 0 49.5-10 66.8-10c37 0 45.2 30.6 45.2 44.7V464zM160 320c53 0 96-43 96-96s-43-96-96-96-96 43-96 96 43 96 96 96zm0-144c26.5 0 48 21.5 48 48s-21.5 48-48 48-48-21.5-48-48 21.5-48 48-48zM592 0H208c-26.5 0-48 22.3-48 49.6V96c9.7 0 32.3 3.1 48 9.5V48h384v320h-48v-48c0-17.7-14.3-32-32-32H384c-17.7 0-32 14.3-32 32v96h240c26.5 0 48-22.3 48-49.6V49.6C640 22.3 618.5 0 592 0zm-96 368h-96v-32h96v32z"/></svg>