<svg xmlns="http://www.w3.org/2000/svg" viewBox="0 0 576 512"><path d="M256 200v56h-56a8 8 0 0 0 -8 8v48a8 8 0 0 0 8 8h56v56a8 8 0 0 0 8 8h48a8 8 0 0 0 8-8v-56h56a8 8 0 0 0 8-8v-48a8 8 0 0 0 -8-8h-56v-56a8 8 0 0 0 -8-8h-48a8 8 0 0 0 -8 8zm314.2 15.4L323.9 13a56 56 0 0 0 -71.7 0L5.8 215.4a16 16 0 0 0 -2 22.5L14 250.3a16 16 0 0 0 22.5 2L64 229.7V288h-.3v208a16.1 16.1 0 0 0 16.1 16H496a16 16 0 0 0 16-16V229.7l27.5 22.6a16 16 0 0 0 22.5-2l10.3-12.3a16 16 0 0 0 -2.1-22.6zM464 224h-.2v240H111.7V194.5l.3-.3v-4L288 45.7l176 144.6z"/></svg>