<svg xmlns="http://www.w3.org/2000/svg" viewBox="0 0 256 512"><path d="M173.9 48c6.9 0 12.3 5.8 12 12.6l-11.7 224c-.3 6.4-5.6 11.4-12 11.4H93.9c-6.4 0-11.7-5-12-11.4l-11.7-224c-.4-6.9 5.1-12.6 12-12.6h91.7M128 336c35.3 0 64 28.7 64 64s-28.7 64-64 64-64-28.7-64-64 28.7-64 64-64M173.9 0H82.1C47.9 0 20.4 28.8 22.2 63.1l11.7 224c.7 13.3 5.7 25.4 13.6 35C28 342.3 16 369.8 16 400c0 61.8 50.2 112 112 112s112-50.2 112-112c0-30.2-12-57.7-31.6-77.9a59.8 59.8 0 0 0 13.6-35l11.7-224C235.6 28.9 208.3 0 173.9 0z"/></svg>