<svg xmlns="http://www.w3.org/2000/svg" viewBox="0 0 512 512"><path d="M483.9 28.1l0 0 0 0c-37.5-37.5-98.3-37.5-135.7 0l-77.1 77.1-13.1-13.1c-9.4-9.4-24.7-9.3-33.9 0l-63.6 63.6c-9.4 9.4-9.4 24.6 0 33.9l17 17L50.8 333.3c-12 12-18.8 28.3-18.8 45.3V424L0 480l32 32 56-32h45.5c17 0 33.3-6.7 45.3-18.7l126.6-126.6 17 17c9.4 9.4 24.7 9.3 33.9 0l63.6-63.6c9.4-9.4 9.4-24.6 0-33.9l-13.1-13.1 77.1-77.1c37.5-37.5 37.5-98.3 0-135.7zM144.8 427.3a15.9 15.9 0 0 1 -11.3 4.7H80v-53.5c0-4.3 1.7-8.3 4.7-11.3l126.6-126.6 60.1 60.1L144.8 427.3zm305.1-297.4l-77.1 77.1-33.9 33.9 30.1 30.1-29.7 29.7-128-128 29.7-29.7 30.1 30.1 111-111.1c9.1-9.1 21.1-14.1 33.9-14.1c12.8 0 24.9 5 33.9 14l0 0C459 71.1 464 83.2 464 96c0 12.8-5 24.9-14.1 33.9z"/></svg>