<svg xmlns="http://www.w3.org/2000/svg" viewBox="0 0 384 512"><path d="M296 400h-80c-4.4 0-8 3.6-8 8v16c0 4.4 3.6 8 8 8h80c4.4 0 8-3.6 8-8v-16c0-4.4-3.6-8-8-8zM80 240v96c0 8.8 7.2 16 16 16h192c8.8 0 16-7.2 16-16v-96c0-8.8-7.2-16-16-16H96c-8.8 0-16 7.2-16 16zm32 16h160v64H112v-64zM369.8 98L285.9 14.1c-9-9-21.2-14.1-33.9-14.1H48C21.5 .1 0 21.6 0 48.1V464c0 26.5 21.5 48 48 48h287.9c26.5 0 48.1-21.5 48.1-48V132c0-12.7-5.2-25-14.2-34zM256 52l76.1 76.1h-76.1V52zM336 464H48V48.1h160v104c0 13.3 10.7 24 24 24H336v288zM88 112h80c4.4 0 8-3.6 8-8V88c0-4.4-3.6-8-8-8H88c-4.4 0-8 3.6-8 8v16c0 4.4 3.6 8 8 8zm0 64h80c4.4 0 8-3.6 8-8v-16c0-4.4-3.6-8-8-8H88c-4.4 0-8 3.6-8 8v16c0 4.4 3.6 8 8 8z"/></svg>