<svg xmlns="http://www.w3.org/2000/svg" viewBox="0 0 448 512"><path d="M128 244v-40c0-6.6 5.4-12 12-12h40c6.6 0 12 5.4 12 12v40c0 6.6-5.4 12-12 12h-40c-6.6 0-12-5.4-12-12zm140 12h40c6.6 0 12-5.4 12-12v-40c0-6.6-5.4-12-12-12h-40c-6.6 0-12 5.4-12 12v40c0 6.6 5.4 12 12 12zm-76 84v-40c0-6.6-5.4-12-12-12h-40c-6.6 0-12 5.4-12 12v40c0 6.6 5.4 12 12 12h40c6.6 0 12-5.4 12-12zm76 12h40c6.6 0 12-5.4 12-12v-40c0-6.6-5.4-12-12-12h-40c-6.6 0-12 5.4-12 12v40c0 6.6 5.4 12 12 12zm180 124v36H0v-36c0-6.6 5.4-12 12-12h19.5V85c0-11.6 10.7-21 24-21H144V24c0-13.3 10.7-24 24-24h112c13.3 0 24 10.7 24 24v40h88.5c13.3 0 24 9.4 24 21V464H436c6.6 0 12 5.4 12 12zM79.5 463H192v-67c0-6.6 5.4-12 12-12h40c6.6 0 12 5.4 12 12v67h112.5V112H304v24c0 13.3-10.7 24-24 24H168c-13.3 0-24-10.7-24-24v-24H79.5v351zM266 64h-26V38a6 6 0 0 0 -6-6h-20a6 6 0 0 0 -6 6v26h-26a6 6 0 0 0 -6 6v20a6 6 0 0 0 6 6h26v26a6 6 0 0 0 6 6h20a6 6 0 0 0 6-6V96h26a6 6 0 0 0 6-6V70a6 6 0 0 0 -6-6z"/></svg>