<svg xmlns="http://www.w3.org/2000/svg" viewBox="0 0 487 512"><path d="M315.7 367.8V209.5c0-15.3-6.7-28.9-17-37.5c19.2-17.4 31.4-43.5 31.4-72.8c0-52.1-38.8-94.5-86.5-94.5s-86.5 42.4-86.5 94.5c0 24.2 8.4 46.3 22.1 63h-.5c-23.9 0-43.3 21.2-43.3 47.3v47.3c0 23.4 15.6 42.9 36 46.6v64.3c-20.4 3.8-36 23.2-36 46.6v47.3c0 26.1 19.4 47.3 43.3 47.3h129.8c23.9 0 43.3-21.2 43.3-47.3v-47.3c0-23.4-15.6-42.9-36-46.6zM243.6 36.2c31.9 0 57.7 28.2 57.7 63s-25.8 63-57.7 63s-57.7-28.2-57.7-63s25.8-63 57.7-63zm79.3 425.4c0 8.7-6.5 15.8-14.4 15.8H178.7c-8 0-14.4-7.1-14.4-15.8v-47.3c0-8.7 6.5-15.8 14.4-15.8h21.6V272.6h-21.6c-8 0-14.4-7.1-14.4-15.8v-47.3c0-8.7 6.5-15.8 14.4-15.8h93.7c8 0 14.4 7.1 14.4 15.8v189.1h21.6c8 0 14.4 7.1 14.4 15.8z"/></svg>