<svg xmlns="http://www.w3.org/2000/svg" viewBox="0 0 384 512"><path d="M208 368.7V208c0-15.5-7.4-29.3-18.8-38.1C210.4 152.3 224 125.7 224 96c0-52.9-43.1-96-96-96S32 43.1 32 96c0 24.6 9.3 47 24.5 64H56c-26.5 0-48 21.5-48 48v48c0 23.7 17.3 43.5 40 47.3v65.3C25.3 372.5 8 392.3 8 416v48c0 26.5 21.5 48 48 48h144c26.5 0 48-21.5 48-48v-48c0-23.7-17.3-43.5-40-47.3zM128 32c35.3 0 64 28.7 64 64s-28.7 64-64 64-64-28.7-64-64 28.7-64 64-64zm88 432c0 8.8-7.2 16-16 16H56c-8.8 0-16-7.2-16-16v-48c0-8.8 7.2-16 16-16h24V272H56c-8.8 0-16-7.2-16-16v-48c0-8.8 7.2-16 16-16h104c8.8 0 16 7.2 16 16v192h24c8.8 0 16 7.2 16 16v48z"/></svg>