<svg xmlns="http://www.w3.org/2000/svg" viewBox="0 0 640 512"><path d="M624 352h-48V64A64.2 64.2 0 0 0 512 0H128A64.2 64.2 0 0 0 64 64v288H16A16 16 0 0 0 0 368v48c0 52.8 43.2 96 96 96h448c52.8 0 96-43.2 96-96v-48a16 16 0 0 0 -16-16zM112 64a16.2 16.2 0 0 1 16-16h384a16.2 16.2 0 0 1 16 16v288H112zm480 352a48.1 48.1 0 0 1 -48 48H96a48.1 48.1 0 0 1 -48-48v-16h180.9c5.6 9.4 15.4 16 27.1 16h128c11.7 0 21.5-6.6 27.1-16H592zM408 160h-56v-56a8 8 0 0 0 -8-8h-48a8 8 0 0 0 -8 8v56h-56a8 8 0 0 0 -8 8v48a8 8 0 0 0 8 8h56v56a8 8 0 0 0 8 8h48a8 8 0 0 0 8-8v-56h56a8 8 0 0 0 8-8v-48a8 8 0 0 0 -8-8z"/></svg>