<svg xmlns="http://www.w3.org/2000/svg" viewBox="0 0 512 512"><path d="M464 32H48C21.5 32 0 53.5 0 80v352c0 26.5 21.5 48 48 48h416c26.5 0 48-21.5 48-48V80c0-26.5-21.5-48-48-48zm-6 400H54a6 6 0 0 1 -6-6V86a6 6 0 0 1 6-6h404a6 6 0 0 1 6 6v340a6 6 0 0 1 -6 6zm-42-92v24c0 6.6-5.4 12-12 12H204c-6.6 0-12-5.4-12-12v-24c0-6.6 5.4-12 12-12h200c6.6 0 12 5.4 12 12zm0-96v24c0 6.6-5.4 12-12 12H204c-6.6 0-12-5.4-12-12v-24c0-6.6 5.4-12 12-12h200c6.6 0 12 5.4 12 12zm0-96v24c0 6.6-5.4 12-12 12H204c-6.6 0-12-5.4-12-12v-24c0-6.6 5.4-12 12-12h200c6.6 0 12 5.4 12 12zm-252 12c0 19.9-16.1 36-36 36s-36-16.1-36-36 16.1-36 36-36 36 16.1 36 36zm0 96c0 19.9-16.1 36-36 36s-36-16.1-36-36 16.1-36 36-36 36 16.1 36 36zm0 96c0 19.9-16.1 36-36 36s-36-16.1-36-36 16.1-36 36-36 36 16.1 36 36z"/></svg>