<svg xmlns="http://www.w3.org/2000/svg" viewBox="0 0 640 512"><path d="M512 224A128 128 0 1 0 640 352 128 128 0 0 0 512 224zm64 144a5.3 5.3 0 0 1 -5.3 5.3h-37.3v37.3A5.3 5.3 0 0 1 528 416h-32a5.3 5.3 0 0 1 -5.3-5.3v-37.3h-37.3A5.3 5.3 0 0 1 448 368v-32a5.3 5.3 0 0 1 5.3-5.3h37.3v-37.3A5.3 5.3 0 0 1 496 288h32a5.3 5.3 0 0 1 5.3 5.3v37.3h37.3A5.3 5.3 0 0 1 576 336zM320 256A112 112 0 1 0 208 144 111.9 111.9 0 0 0 320 256zm0-176a64 64 0 1 1 -64 64 64.1 64.1 0 0 1 64-64zM96 224a80 80 0 1 0 -80-80 80 80 0 0 0 80 80zm0-112a32 32 0 1 1 -32 32 32.1 32.1 0 0 1 32-32zm278.3 320H176v-44.8a67.4 67.4 0 0 1 65.4-67.2 203.8 203.8 0 0 0 78.6 16 198.4 198.4 0 0 0 33.9-3.1 157.6 157.6 0 0 1 16-52.8c-1.8 .5-3.6 .7-5.3 1.2a152.5 152.5 0 0 1 -89.4 0c-47.1-14.3-100.3 .8-127.8 41.7a114.6 114.6 0 0 0 -19.6 64.3V432a48 48 0 0 0 48 48H417a160.3 160.3 0 0 1 -42.7-48zM154.8 270.3A83.7 83.7 0 0 0 108 256H84a84.1 84.1 0 0 0 -84 84 24 24 0 0 0 48 0 36.1 36.1 0 0 1 36-36h24a35.5 35.5 0 0 1 12.3 2.5 148.4 148.4 0 0 1 34.5-36.2z"/></svg>