<svg xmlns="http://www.w3.org/2000/svg" viewBox="0 0 384 512"><path d="M289.9 352l89.4-89.4c6.3-6.3 6.3-16.4 0-22.6L368 228.7c-6.3-6.3-16.4-6.3-22.6 0L256 318.1l-94.2-94.2c52.2-1 94.2-43.4 94.2-95.8c0-53-43-96-96-96H16C7.2 32 0 39.2 0 48v256c0 8.8 7.2 16 16 16h16c8.8 0 16-7.2 16-16v-80h46.1l128 128-89.4 89.4c-6.3 6.3-6.3 16.4 0 22.6L144 475.3c6.3 6.3 16.4 6.3 22.6 0L256 385.9l89.4 89.4c6.3 6.3 16.4 6.3 22.6 0L379.3 464c6.3-6.3 6.3-16.4 0-22.6L289.9 352zM48 176V80h112c26.5 0 48 21.5 48 48s-21.5 48-48 48H48z"/></svg>