<svg xmlns="http://www.w3.org/2000/svg" viewBox="0 0 448 512"><path d="M448 80v352c0 26.5-21.5 48-48 48H48c-26.5 0-48-21.5-48-48V80c0-26.5 21.5-48 48-48h352c26.5 0 48 21.5 48 48zm-48 346V86a6 6 0 0 0 -6-6H54a6 6 0 0 0 -6 6v340a6 6 0 0 0 6 6h340a6 6 0 0 0 6-6zm-68.8-225.2c0 67.1-72.4 68.1-72.4 92.9V300c0 6.6-5.4 12-12 12h-45.6c-6.6 0-12-5.4-12-12v-8.7c0-35.7 27.1-50 47.6-61.5c17.6-9.8 28.3-16.5 28.3-29.6c0-17.2-22-28.7-39.8-28.7c-23.2 0-33.9 11-48.9 30c-4.1 5.1-11.5 6.1-16.7 2.1l-27.8-21.1c-5.1-3.9-6.3-11.1-2.6-16.4c23.6-34.7 53.7-54.2 100.6-54.2c49.1 0 101.5 38.3 101.5 88.8zM266 368c0 23.2-18.8 42-42 42s-42-18.8-42-42 18.8-42 42-42 42 18.8 42 42z"/></svg>