<svg xmlns="http://www.w3.org/2000/svg" viewBox="0 0 384 512"><path d="M199.7 0c-74 0-130 30.2-172.4 92.5C8 120.7 14.3 158.8 41.4 179.4l36.7 27.9c10.8 8.2 24.2 12.8 37.7 13c-11.8 19-17.8 40.6-17.8 64.6v11.4c0 16.4 6.2 31.3 16.4 42.7C98 357.2 88 381.5 88 408c0 57.4 46.7 104 104 104s104-46.7 104-104c0-26.6-10-50.8-26.4-69.2c8.7-9.6 14.4-21.9 16-35.4c28.3-16.9 96-48.9 96-138.2C381.6 71.2 290.5 0 199.7 0zM192 464c-30.9 0-56-25.1-56-56s25.1-56 56-56s56 25.1 56 56c0 30.9-25.1 56-56 56zm46-176.2v8.4c0 8.8-7.1 15.8-15.8 15.8h-60.3c-8.7 0-15.8-7.1-15.8-15.8v-11.4c0-47.2 35.8-66 62.8-81.2c23.2-13 37.4-21.8 37.4-39c0-22.8-29-37.9-52.5-37.9c-30.6 0-44.7 14.5-64.6 39.6c-5.4 6.8-15.2 8-22 2.8l-36.7-27.9c-6.7-5.1-8.3-14.6-3.5-21.6C98.1 73.7 137.8 48 199.7 48c64.8 0 133.9 50.6 133.9 117.2c0 88.5-95.6 89.9-95.6 122.6z"/></svg>