<svg xmlns="http://www.w3.org/2000/svg" viewBox="0 0 384 512"><path d="M200.3 0C124 0 69.8 31.6 28.2 93.3C14 114.4 18.7 143 39 158.4l42 31.9c20.7 15.7 50.3 12.2 66.7-8.5c21.5-27.2 28.4-32 46.1-32c10.2 0 25.3 7 25.3 18.2c0 25.7-109.3 20.7-109.3 122.3V304c0 16 7.9 30.2 20 38.9C109.1 360.5 96 386.8 96 416c0 52.9 43.1 96 96 96s96-43.1 96-96c0-29.2-13.1-55.5-33.8-73.1c12.1-8.7 20-22.9 20-38.9v-4.7c25.4-19 104.3-44.5 104.3-139.4C378.4 68.8 288.4 0 200.3 0zM192 480c-35.3 0-64-28.7-64-64s28.7-64 64-64 64 28.7 64 64-28.7 64-64 64zm50.1-186.4V304c0 8.8-7.2 16-16 16h-68.3c-8.8 0-16-7.2-16-16v-13.7c0-86.8 109.3-57.3 109.3-122.3c0-32-31.7-50.2-57.3-50.2c-33.8 0-49.2 16.2-71.2 44.1c-5.4 6.8-15.3 8.1-22.2 2.8l-42-31.9c-6.8-5.1-8.4-14.6-3.6-21.7C88.9 60.5 132.4 32 200.3 32c70.7 0 146.1 55.2 146.1 127.9c0 96.6-104.3 98-104.3 133.7z"/></svg>