<svg xmlns="http://www.w3.org/2000/svg" viewBox="0 0 448 512"><path d="M444 96.2c-11-45.3-47.1-82.1-92-93.7c-27.5-7.2-57.5 1-89.2 24.3c-11.5 8.4-25.2 13-38.8 13.3c-6.3-.1-17.1 .1-40.4-14.4c-.1-.1-.2-.1-.3-.1C152.3 3.4 122.9-4.5 96 2.5c-44.9 11.6-81 48.4-92 93.7c-9.6 39.5-2 78.7 21.5 110.5c20.5 27.7 32 61.8 36.3 107.4c3.6 38.7 9.3 89.6 20.9 140.3l7.8 34c3.2 13.9 15.4 23.7 29.7 23.7c14 0 26.1-9.5 29.5-23.2l34.5-138.4c4.6-18.4 20.9-31.2 39.7-31.2s35.2 12.8 39.8 31.2l34.5 138.5c3.4 13.6 15.6 23.1 29.5 23.1c14.3 0 26.5-9.7 29.7-23.7l7.8-34c11.7-50.7 17.3-101.6 20.9-140.3c4.3-45.5 15.8-79.7 36.3-107.4c23.5-31.7 31.1-70.9 21.5-110.5zm-60.1 81.9c-25.9 35.1-40.4 76.8-45.5 131.5c-2.5 26.9-6 59.7-11.9 94l-16.1-64.8c-9.9-39.8-45.4-67.6-86.3-67.6c-40.9 0-76.4 27.8-86.3 67.6l-16.1 64.8c-5.9-34.3-9.4-67.2-11.9-94c-5.1-54.6-19.5-96.4-45.5-131.5c-14.8-20.1-19.6-45.1-13.5-70.5c6.9-28.4 29.5-51.4 57.4-58.6c2.5-.7 5.1-1 7.8-1c15.9 0 17.9 3.4 135.5 76.4c3.9 2.5 8.3 3.6 12.6 3.6c8 0 15.9-4 20.4-11.3c7-11.3 3.5-26.1-7.7-33.1l-8.5-5.3c8.1-3.5 15.9-7.6 23.1-12.8c19.2-14.2 35.1-20.1 48.6-16.5c28 7.3 50.5 30.3 57.4 58.6c6.2 25.4 1.4 50.4-13.4 70.5z"/></svg>