<svg xmlns="http://www.w3.org/2000/svg">
<symbol id="id-badge-regular-nysed" viewBox="0 0 384 512">
<path d="M336 0H48C21.5 0 0 21.5 0 48v416c0 26.5 21.5 48 48 48h288c26.5 0 48-21.5 48-48V48c0-26.5-21.5-48-48-48zm0 464H48V48h288v416zM144 112h96c8.8 0 16-7.2 16-16s-7.2-16-16-16h-96c-8.8 0-16 7.2-16 16s7.2 16 16 16zm48 176c35.3 0 64-28.7 64-64s-28.7-64-64-64-64 28.7-64 64 28.7 64 64 64zm-89.6 128h179.2c12.4 0 22.4-8.6 22.4-19.2v-19.2c0-31.8-30.1-57.6-67.2-57.6c-10.8 0-18.7 8-44.8 8c-26.9 0-33.4-8-44.8-8c-37.1 0-67.2 25.8-67.2 57.6v19.2c0 10.6 10 19.2 22.4 19.2z"/>
</symbol>
<symbol id="question-square-regular-nysed" viewBox="0 0 448 512">
<path d="M448 80v352c0 26.5-21.5 48-48 48H48c-26.5 0-48-21.5-48-48V80c0-26.5 21.5-48 48-48h352c26.5 0 48 21.5 48 48zm-48 346V86a6 6 0 0 0 -6-6H54a6 6 0 0 0 -6 6v340a6 6 0 0 0 6 6h340a6 6 0 0 0 6-6zm-68.8-225.2c0 67.1-72.4 68.1-72.4 92.9V300c0 6.6-5.4 12-12 12h-45.6c-6.6 0-12-5.4-12-12v-8.7c0-35.7 27.1-50 47.6-61.5c17.6-9.8 28.3-16.5 28.3-29.6c0-17.2-22-28.7-39.8-28.7c-23.2 0-33.9 11-48.9 30c-4.1 5.1-11.5 6.1-16.7 2.1l-27.8-21.1c-5.1-3.9-6.3-11.1-2.6-16.4c23.6-34.7 53.7-54.2 100.6-54.2c49.1 0 101.5 38.3 101.5 88.8zM266 368c0 23.2-18.8 42-42 42s-42-18.8-42-42 18.8-42 42-42 42 18.8 42 42z"/>
</symbol>
<symbol id="users-regular-nysed" viewBox="0 0 640 512">
<path d="M544 224c44.2 0 80-35.8 80-80s-35.8-80-80-80-80 35.8-80 80 35.8 80 80 80zm0-112c17.6 0 32 14.4 32 32s-14.4 32-32 32-32-14.4-32-32 14.4-32 32-32zM96 224c44.2 0 80-35.8 80-80s-35.8-80-80-80-80 35.8-80 80 35.8 80 80 80zm0-112c17.6 0 32 14.4 32 32s-14.4 32-32 32-32-14.4-32-32 14.4-32 32-32zm396.4 210.9c-27.5-40.8-80.7-56-127.8-41.7c-14.2 4.3-29.1 6.7-44.7 6.7s-30.5-2.4-44.7-6.7c-47.1-14.3-100.3 .8-127.8 41.7c-12.4 18.4-19.6 40.5-19.6 64.3V432c0 26.5 21.5 48 48 48h288c26.5 0 48-21.5 48-48v-44.8c.2-23.8-7-45.9-19.4-64.3zM464 432H176v-44.8c0-36.4 29.2-66.2 65.4-67.2c25.5 10.6 51.9 16 78.6 16s53.1-5.4 78.6-16c36.2 1 65.4 30.7 65.4 67.2V432zm92-176h-24c-17.3 0-33.4 5.3-46.8 14.3c13.4 10.1 25.2 22.2 34.4 36.2c3.9-1.4 8-2.5 12.3-2.5h24c19.8 0 36 16.2 36 36c0 13.2 10.8 24 24 24s24-10.8 24-24c.1-46.3-37.6-84-83.9-84zm-236 0c61.9 0 112-50.1 112-112S381.9 32 320 32 208 82.1 208 144s50.1 112 112 112zm0-176c35.3 0 64 28.7 64 64s-28.7 64-64 64-64-28.7-64-64 28.7-64 64-64zM154.8 270.3c-13.4-9-29.5-14.3-46.8-14.3H84c-46.3 0-84 37.7-84 84c0 13.2 10.8 24 24 24s24-10.8 24-24c0-19.8 16.2-36 36-36h24c4.4 0 8.5 1.1 12.3 2.5c9.3-14 21.1-26.1 34.5-36.2z"/>
</symbol>
<symbol id="phone-regular-nysed" viewBox="0 0 512 512">
<path d="M484.3 330l-101.6-43.6a45.9 45.9 0 0 0 -53.4 13.1l-32.7 40A311.1 311.1 0 0 1 172.4 215.4l40-32.7a45.9 45.9 0 0 0 13.1-53.4L182 27.8A45.6 45.6 0 0 0 129.7 1.2L35.5 22.9A45.6 45.6 0 0 0 0 67.5C0 313.8 199.7 512.1 444.6 512a45.6 45.6 0 0 0 44.6-35.5l21.7-94.2A45.8 45.8 0 0 0 484.3 330zm-41.6 134.1C225.1 463.1 49 287 48 69.3l90.7-20.9 42.1 98.2-68.1 55.7c46.4 99 98.2 150.6 197 197l55.7-68.1 98.2 42.1z"/>
</symbol>
<symbol id="file-invoice-light-nysed" viewBox="0 0 384 512">
<path d="M320 480H64c-17.7 0-32-14.3-32-32V64c0-17.7 14.3-32 32-32H192V144c0 26.5 21.5 48 48 48H352V448c0 17.7-14.3 32-32 32zM240 160c-8.8 0-16-7.2-16-16V32.5c2.8 .7 5.4 2.1 7.4 4.2L347.3 152.6c2.1 2.1 3.5 4.6 4.2 7.4H240zM64 0C28.7 0 0 28.7 0 64V448c0 35.3 28.7 64 64 64H320c35.3 0 64-28.7 64-64V163.9c0-12.7-5.1-24.9-14.1-33.9L254.1 14.1c-9-9-21.2-14.1-33.9-14.1H64zm0 80c0 8.8 7.2 16 16 16h64c8.8 0 16-7.2 16-16s-7.2-16-16-16H80c-8.8 0-16 7.2-16 16zm0 64c0 8.8 7.2 16 16 16h64c8.8 0 16-7.2 16-16s-7.2-16-16-16H80c-8.8 0-16 7.2-16 16zM224 432c0 8.8 7.2 16 16 16h64c8.8 0 16-7.2 16-16s-7.2-16-16-16H240c-8.8 0-16 7.2-16 16zm64-96H96V272H288v64zM96 240c-17.7 0-32 14.3-32 32v64c0 17.7 14.3 32 32 32H288c17.7 0 32-14.3 32-32V272c0-17.7-14.3-32-32-32H96z"/>
</symbol>
<symbol id="chat-bar-regular-nysed" viewBox="0 0 512 512">
<path d="M396.8 352h22.4c6.4 0 12.8-6.4 12.8-12.8V108.8c0-6.4-6.4-12.8-12.8-12.8h-22.4c-6.4 0-12.8 6.4-12.8 12.8v230.4c0 6.4 6.4 12.8 12.8 12.8zm-192 0h22.4c6.4 0 12.8-6.4 12.8-12.8V140.8c0-6.4-6.4-12.8-12.8-12.8h-22.4c-6.4 0-12.8 6.4-12.8 12.8v198.4c0 6.4 6.4 12.8 12.8 12.8zm96 0h22.4c6.4 0 12.8-6.4 12.8-12.8V204.8c0-6.4-6.4-12.8-12.8-12.8h-22.4c-6.4 0-12.8 6.4-12.8 12.8v134.4c0 6.4 6.4 12.8 12.8 12.8zM496 400H48V80c0-8.8-7.2-16-16-16H16C7.2 64 0 71.2 0 80v336c0 17.7 14.3 32 32 32h464c8.8 0 16-7.2 16-16v-16c0-8.8-7.2-16-16-16zm-387.2-48h22.4c6.4 0 12.8-6.4 12.8-12.8v-70.4c0-6.4-6.4-12.8-12.8-12.8h-22.4c-6.4 0-12.8 6.4-12.8 12.8v70.4c0 6.4 6.4 12.8 12.8 12.8z"/>
</symbol>
<symbol id="chalkboard-regular-nysed" viewBox="0 0 640 512">
<path d="M80 48h480v368h48V40c0-22.1-17.9-40-40-40H72C49.9 0 32 17.9 32 40v376h48V48zm544 416H512v-80c0-17.7-14.3-32-32-32H288c-17.7 0-32 14.3-32 32v80H16c-8.8 0-16 7.2-16 16v16c0 8.8 7.2 16 16 16h608c8.8 0 16-7.2 16-16v-16c0-8.8-7.2-16-16-16zm-160 0H304v-64h160v64z"/>
</symbol>
<symbol id="notes-medical-regular-nysed" viewBox="0 0 384 512">
<path d="M336 64h-80c0-35.3-28.7-64-64-64s-64 28.7-64 64H48C21.5 64 0 85.5 0 112v352c0 26.5 21.5 48 48 48h288c26.5 0 48-21.5 48-48V112c0-26.5-21.5-48-48-48zM192 40c13.3 0 24 10.7 24 24s-10.7 24-24 24-24-10.7-24-24 10.7-24 24-24zm144 418c0 3.3-2.7 6-6 6H54c-3.3 0-6-2.7-6-6V118c0-3.3 2.7-6 6-6h42v36c0 6.6 5.4 12 12 12h168c6.6 0 12-5.4 12-12v-36h42c3.3 0 6 2.7 6 6v340zm-56-170h-56v-56c0-4.4-3.6-8-8-8h-48c-4.4 0-8 3.6-8 8v56h-56c-4.4 0-8 3.6-8 8v48c0 4.4 3.6 8 8 8h56v56c0 4.4 3.6 8 8 8h48c4.4 0 8-3.6 8-8v-56h56c4.4 0 8-3.6 8-8v-48c0-4.4-3.6-8-8-8z"/>
</symbol>
<symbol id="eye-dropper-regular-nysed" viewBox="0 0 512 512">
<path d="M483.9 28.1l0 0 0 0c-37.5-37.5-98.3-37.5-135.7 0l-77.1 77.1-13.1-13.1c-9.4-9.4-24.7-9.3-33.9 0l-63.6 63.6c-9.4 9.4-9.4 24.6 0 33.9l17 17L50.8 333.3c-12 12-18.8 28.3-18.8 45.3V424L0 480l32 32 56-32h45.5c17 0 33.3-6.7 45.3-18.7l126.6-126.6 17 17c9.4 9.4 24.7 9.3 33.9 0l63.6-63.6c9.4-9.4 9.4-24.6 0-33.9l-13.1-13.1 77.1-77.1c37.5-37.5 37.5-98.3 0-135.7zM144.8 427.3a15.9 15.9 0 0 1 -11.3 4.7H80v-53.5c0-4.3 1.7-8.3 4.7-11.3l126.6-126.6 60.1 60.1L144.8 427.3zm305.1-297.4l-77.1 77.1-33.9 33.9 30.1 30.1-29.7 29.7-128-128 29.7-29.7 30.1 30.1 111-111.1c9.1-9.1 21.1-14.1 33.9-14.1c12.8 0 24.9 5 33.9 14l0 0C459 71.1 464 83.2 464 96c0 12.8-5 24.9-14.1 33.9z"/>
</symbol>
<symbol id="chalkboard-teacher-regular-nysed" viewBox="0 0 640 512">
<path d="M226.8 342C199 342 192 352 160 352c-32 0-39-10-66.8-10C21.1 342 0 403 0 434.7V472c0 22.1 17.9 40 40 40h240c22.1 0 40-17.9 40-40v-37.3c0-42.7-30.6-92.7-93.2-92.7zM272 464H48v-29.3c0-14 8.2-44.7 45.2-44.7c17.2 0 29.6 10 66.8 10c37.4 0 49.5-10 66.8-10c37 0 45.2 30.6 45.2 44.7V464zM160 320c53 0 96-43 96-96s-43-96-96-96-96 43-96 96 43 96 96 96zm0-144c26.5 0 48 21.5 48 48s-21.5 48-48 48-48-21.5-48-48 21.5-48 48-48zM592 0H208c-26.5 0-48 22.3-48 49.6V96c9.7 0 32.3 3.1 48 9.5V48h384v320h-48v-48c0-17.7-14.3-32-32-32H384c-17.7 0-32 14.3-32 32v96h240c26.5 0 48-22.3 48-49.6V49.6C640 22.3 618.5 0 592 0zm-96 368h-96v-32h96v32z"/>
</symbol>
<symbol id="calendar-light-nysed" viewBox="0 0 448 512">
<path d="M112 0c8.8 0 16 7.2 16 16V64H320V16c0-8.8 7.2-16 16-16s16 7.2 16 16V64h32c35.3 0 64 28.7 64 64v32 32V448c0 35.3-28.7 64-64 64H64c-35.3 0-64-28.7-64-64v-256-32-32C0 92.7 28.7 64 64 64H96V16c0-8.8 7.2-16 16-16zM416 192H32V448c0 17.7 14.3 32 32 32H384c17.7 0 32-14.3 32-32V192zM384 96H64c-17.7 0-32 14.3-32 32v32H416V128c0-17.7-14.3-32-32-32z"/>
</symbol>
<symbol id="laptop-regular-nysed" viewBox="0 0 640 512">
<path d="M624 352h-48V64c0-35.2-28.8-64-64-64H128C92.8 0 64 28.8 64 64v288H16c-8.8 0-16 7.2-16 16v48c0 52.8 43.2 96 96 96h448c52.8 0 96-43.2 96-96v-48c0-8.8-7.2-16-16-16zM112 64c0-8.7 7.3-16 16-16h384c8.7 0 16 7.3 16 16v288H112V64zm480 352c0 26.5-21.5 48-48 48H96c-26.5 0-48-21.5-48-48v-16h180.9c5.6 9.4 15.4 16 27.1 16h128c11.7 0 21.5-6.6 27.1-16H592v16z"/>
</symbol>
<symbol id="calculator-regular-nysed" viewBox="0 0 448 512">
<path d="M400 0H48C22.4 0 0 22.4 0 48v416c0 25.6 22.4 48 48 48h352c25.6 0 48-22.4 48-48V48c0-25.6-22.4-48-48-48zm0 464H48V208h352v256zm0-304H48V48h352v112zM108.8 320h38.4c6.4 0 12.8-6.4 12.8-12.8v-38.4c0-6.4-6.4-12.8-12.8-12.8h-38.4c-6.4 0-12.8 6.4-12.8 12.8v38.4c0 6.4 6.4 12.8 12.8 12.8zm192 96h38.4c6.4 0 12.8-6.4 12.8-12.8V268.8c0-6.4-6.4-12.8-12.8-12.8h-38.4c-6.4 0-12.8 6.4-12.8 12.8v134.4c0 6.4 6.4 12.8 12.8 12.8zm-192 0h38.4c6.4 0 12.8-6.4 12.8-12.8v-38.4c0-6.4-6.4-12.8-12.8-12.8h-38.4c-6.4 0-12.8 6.4-12.8 12.8v38.4c0 6.4 6.4 12.8 12.8 12.8zm96-96h38.4c6.4 0 12.8-6.4 12.8-12.8v-38.4c0-6.4-6.4-12.8-12.8-12.8h-38.4c-6.4 0-12.8 6.4-12.8 12.8v38.4c0 6.4 6.4 12.8 12.8 12.8zm0 96h38.4c6.4 0 12.8-6.4 12.8-12.8v-38.4c0-6.4-6.4-12.8-12.8-12.8h-38.4c-6.4 0-12.8 6.4-12.8 12.8v38.4c0 6.4 6.4 12.8 12.8 12.8z"/>
</symbol>
<symbol id="hospital-regular-nysed" viewBox="0 0 448 512">
<path d="M128 244v-40c0-6.6 5.4-12 12-12h40c6.6 0 12 5.4 12 12v40c0 6.6-5.4 12-12 12h-40c-6.6 0-12-5.4-12-12zm140 12h40c6.6 0 12-5.4 12-12v-40c0-6.6-5.4-12-12-12h-40c-6.6 0-12 5.4-12 12v40c0 6.6 5.4 12 12 12zm-76 84v-40c0-6.6-5.4-12-12-12h-40c-6.6 0-12 5.4-12 12v40c0 6.6 5.4 12 12 12h40c6.6 0 12-5.4 12-12zm76 12h40c6.6 0 12-5.4 12-12v-40c0-6.6-5.4-12-12-12h-40c-6.6 0-12 5.4-12 12v40c0 6.6 5.4 12 12 12zm180 124v36H0v-36c0-6.6 5.4-12 12-12h19.5V85c0-11.6 10.7-21 24-21H144V24c0-13.3 10.7-24 24-24h112c13.3 0 24 10.7 24 24v40h88.5c13.3 0 24 9.4 24 21V464H436c6.6 0 12 5.4 12 12zM79.5 463H192v-67c0-6.6 5.4-12 12-12h40c6.6 0 12 5.4 12 12v67h112.5V112H304v24c0 13.3-10.7 24-24 24H168c-13.3 0-24-10.7-24-24v-24H79.5v351zM266 64h-26V38a6 6 0 0 0 -6-6h-20a6 6 0 0 0 -6 6v26h-26a6 6 0 0 0 -6 6v20a6 6 0 0 0 6 6h26v26a6 6 0 0 0 6 6h20a6 6 0 0 0 6-6V96h26a6 6 0 0 0 6-6V70a6 6 0 0 0 -6-6z"/>
</symbol>
<symbol id="exclamation-regular-nysed" viewBox="0 0 256 512">
<path d="M173.9 48c6.9 0 12.3 5.8 12 12.6l-11.7 224c-.3 6.4-5.6 11.4-12 11.4H93.9c-6.4 0-11.7-5-12-11.4l-11.7-224c-.4-6.9 5.1-12.6 12-12.6h91.7M128 336c35.3 0 64 28.7 64 64s-28.7 64-64 64-64-28.7-64-64 28.7-64 64-64M173.9 0H82.1C47.9 0 20.4 28.8 22.2 63.1l11.7 224c.7 13.3 5.7 25.4 13.6 35C28 342.3 16 369.8 16 400c0 61.8 50.2 112 112 112s112-50.2 112-112c0-30.2-12-57.7-31.6-77.9a59.8 59.8 0 0 0 13.6-35l11.7-224C235.6 28.9 208.3 0 173.9 0z"/>
</symbol>
<symbol id="file-invoice-regular-nysed" viewBox="0 0 384 512">
<path d="M296 400h-80c-4.4 0-8 3.6-8 8v16c0 4.4 3.6 8 8 8h80c4.4 0 8-3.6 8-8v-16c0-4.4-3.6-8-8-8zM80 240v96c0 8.8 7.2 16 16 16h192c8.8 0 16-7.2 16-16v-96c0-8.8-7.2-16-16-16H96c-8.8 0-16 7.2-16 16zm32 16h160v64H112v-64zM369.8 98L285.9 14.1c-9-9-21.2-14.1-33.9-14.1H48C21.5 .1 0 21.6 0 48.1V464c0 26.5 21.5 48 48 48h287.9c26.5 0 48.1-21.5 48.1-48V132c0-12.7-5.2-25-14.2-34zM256 52l76.1 76.1h-76.1V52zM336 464H48V48.1h160v104c0 13.3 10.7 24 24 24H336v288zM88 112h80c4.4 0 8-3.6 8-8V88c0-4.4-3.6-8-8-8H88c-4.4 0-8 3.6-8 8v16c0 4.4 3.6 8 8 8zm0 64h80c4.4 0 8-3.6 8-8v-16c0-4.4-3.6-8-8-8H88c-4.4 0-8 3.6-8 8v16c0 4.4 3.6 8 8 8z"/>
</symbol>
<symbol id="info-light-outline" viewBox="0 0 487 512">
<path d="M315.7 367.8V209.5c0-15.3-6.7-28.9-17-37.5c19.2-17.4 31.4-43.5 31.4-72.8c0-52.1-38.8-94.5-86.5-94.5s-86.5 42.4-86.5 94.5c0 24.2 8.4 46.3 22.1 63h-.5c-23.9 0-43.3 21.2-43.3 47.3v47.3c0 23.4 15.6 42.9 36 46.6v64.3c-20.4 3.8-36 23.2-36 46.6v47.3c0 26.1 19.4 47.3 43.3 47.3h129.8c23.9 0 43.3-21.2 43.3-47.3v-47.3c0-23.4-15.6-42.9-36-46.6zM243.6 36.2c31.9 0 57.7 28.2 57.7 63s-25.8 63-57.7 63s-57.7-28.2-57.7-63s25.8-63 57.7-63zm79.3 425.4c0 8.7-6.5 15.8-14.4 15.8H178.7c-8 0-14.4-7.1-14.4-15.8v-47.3c0-8.7 6.5-15.8 14.4-15.8h21.6V272.6h-21.6c-8 0-14.4-7.1-14.4-15.8v-47.3c0-8.7 6.5-15.8 14.4-15.8h93.7c8 0 14.4 7.1 14.4 15.8v189.1h21.6c8 0 14.4 7.1 14.4 15.8z"/>
</symbol>
<symbol id="question-regular-nysed" viewBox="0 0 384 512">
<path d="M199.7 0c-74 0-130 30.2-172.4 92.5C8 120.7 14.3 158.8 41.4 179.4l36.7 27.9c10.8 8.2 24.2 12.8 37.7 13c-11.8 19-17.8 40.6-17.8 64.6v11.4c0 16.4 6.2 31.3 16.4 42.7C98 357.2 88 381.5 88 408c0 57.4 46.7 104 104 104s104-46.7 104-104c0-26.6-10-50.8-26.4-69.2c8.7-9.6 14.4-21.9 16-35.4c28.3-16.9 96-48.9 96-138.2C381.6 71.2 290.5 0 199.7 0zM192 464c-30.9 0-56-25.1-56-56s25.1-56 56-56s56 25.1 56 56c0 30.9-25.1 56-56 56zm46-176.2v8.4c0 8.8-7.1 15.8-15.8 15.8h-60.3c-8.7 0-15.8-7.1-15.8-15.8v-11.4c0-47.2 35.8-66 62.8-81.2c23.2-13 37.4-21.8 37.4-39c0-22.8-29-37.9-52.5-37.9c-30.6 0-44.7 14.5-64.6 39.6c-5.4 6.8-15.2 8-22 2.8l-36.7-27.9c-6.7-5.1-8.3-14.6-3.5-21.6C98.1 73.7 137.8 48 199.7 48c64.8 0 133.9 50.6 133.9 117.2c0 88.5-95.6 89.9-95.6 122.6z"/>
</symbol>
<symbol id="chevron-square-right-regular-nysed" viewBox="0 0 448 512">
<path d="M316.5 264.5L193.7 387.3c-4.7 4.7-12.3 4.7-17 0l-22.6-22.6c-4.7-4.7-4.7-12.3 0-17l91.7-91.7-91.7-91.7c-4.7-4.7-4.7-12.3 0-17l22.6-22.6c4.7-4.7 12.3-4.7 17 0l122.8 122.8c4.7 4.7 4.7 12.3 0 17zM448 80v352c0 26.5-21.5 48-48 48H48c-26.5 0-48-21.5-48-48V80c0-26.5 21.5-48 48-48h352c26.5 0 48 21.5 48 48zm-48 346V86c0-3.3-2.7-6-6-6H54c-3.3 0-6 2.7-6 6v340c0 3.3 2.7 6 6 6h340c3.3 0 6-2.7 6-6z"/>
</symbol>
<symbol id="portrait-regular-nysed" viewBox="0 0 384 512">
<path d="M336 0H48C21.5 0 0 21.5 0 48v416c0 26.5 21.5 48 48 48h288c26.5 0 48-21.5 48-48V48c0-26.5-21.5-48-48-48zm0 464H48V48h288v416zM192 256c35.3 0 64-28.7 64-64s-28.7-64-64-64-64 28.7-64 64 28.7 64 64 64zm-89.6 128h179.2c12.4 0 22.4-8.6 22.4-19.2v-19.2c0-31.8-30.1-57.6-67.2-57.6h-5c-12.3 5.1-25.7 8-39.8 8s-27.6-2.9-39.8-8h-5c-37.1 0-67.2 25.8-67.2 57.6v19.2c0 10.6 10 19.2 22.4 19.2z"/>
</symbol>
<symbol id="prescription-regular-nysed" viewBox="0 0 384 512">
<path d="M289.9 352l89.4-89.4c6.3-6.3 6.3-16.4 0-22.6L368 228.7c-6.3-6.3-16.4-6.3-22.6 0L256 318.1l-94.2-94.2c52.2-1 94.2-43.4 94.2-95.8c0-53-43-96-96-96H16C7.2 32 0 39.2 0 48v256c0 8.8 7.2 16 16 16h16c8.8 0 16-7.2 16-16v-80h46.1l128 128-89.4 89.4c-6.3 6.3-6.3 16.4 0 22.6L144 475.3c6.3 6.3 16.4 6.3 22.6 0L256 385.9l89.4 89.4c6.3 6.3 16.4 6.3 22.6 0L379.3 464c6.3-6.3 6.3-16.4 0-22.6L289.9 352zM48 176V80h112c26.5 0 48 21.5 48 48s-21.5 48-48 48H48z"/>
</symbol>
<symbol id="tooth-regular-nysed" viewBox="0 0 448 512">
<path d="M444 96.2c-11-45.3-47.1-82.1-92-93.7c-27.5-7.2-57.5 1-89.2 24.3c-11.5 8.4-25.2 13-38.8 13.3c-6.3-.1-17.1 .1-40.4-14.4c-.1-.1-.2-.1-.3-.1C152.3 3.4 122.9-4.5 96 2.5c-44.9 11.6-81 48.4-92 93.7c-9.6 39.5-2 78.7 21.5 110.5c20.5 27.7 32 61.8 36.3 107.4c3.6 38.7 9.3 89.6 20.9 140.3l7.8 34c3.2 13.9 15.4 23.7 29.7 23.7c14 0 26.1-9.5 29.5-23.2l34.5-138.4c4.6-18.4 20.9-31.2 39.7-31.2s35.2 12.8 39.8 31.2l34.5 138.5c3.4 13.6 15.6 23.1 29.5 23.1c14.3 0 26.5-9.7 29.7-23.7l7.8-34c11.7-50.7 17.3-101.6 20.9-140.3c4.3-45.5 15.8-79.7 36.3-107.4c23.5-31.7 31.1-70.9 21.5-110.5zm-60.1 81.9c-25.9 35.1-40.4 76.8-45.5 131.5c-2.5 26.9-6 59.7-11.9 94l-16.1-64.8c-9.9-39.8-45.4-67.6-86.3-67.6c-40.9 0-76.4 27.8-86.3 67.6l-16.1 64.8c-5.9-34.3-9.4-67.2-11.9-94c-5.1-54.6-19.5-96.4-45.5-131.5c-14.8-20.1-19.6-45.1-13.5-70.5c6.9-28.4 29.5-51.4 57.4-58.6c2.5-.7 5.1-1 7.8-1c15.9 0 17.9 3.4 135.5 76.4c3.9 2.5 8.3 3.6 12.6 3.6c8 0 15.9-4 20.4-11.3c7-11.3 3.5-26.1-7.7-33.1l-8.5-5.3c8.1-3.5 15.9-7.6 23.1-12.8c19.2-14.2 35.1-20.1 48.6-16.5c28 7.3 50.5 30.3 57.4 58.6c6.2 25.4 1.4 50.4-13.4 70.5z"/>
</symbol>
<symbol id="user-reglar-nysed" viewBox="0 0 448 512">
<path d="M313.6 304c-28.7 0-42.5 16-89.6 16s-60.8-16-89.6-16C60.2 304 0 364.2 0 438.4V464c0 26.5 21.5 48 48 48h352c26.5 0 48-21.5 48-48v-25.6c0-74.2-60.2-134.4-134.4-134.4zM400 464H48v-25.6c0-47.6 38.8-86.4 86.4-86.4c14.6 0 38.3 16 89.6 16c51.7 0 74.9-16 89.6-16c47.6 0 86.4 38.8 86.4 86.4V464zM224 288c79.5 0 144-64.5 144-144S303.5 0 224 0 80 64.5 80 144s64.5 144 144 144zm0-240c52.9 0 96 43.1 96 96s-43.1 96-96 96-96-43.1-96-96 43.1-96 96-96z"/>
</symbol>
<symbol id="phone-alt-regular-nysed" viewBox="0 0 512 512">
<path d="M476.5 22.9L382.3 1.2c-21.6-5-43.6 6.2-52.3 26.6l-43.5 101.5c-8 18.6-2.6 40.6 13.1 53.4l40 32.7C311 267.8 267.8 311 215.4 339.5l-32.7-40c-12.8-15.7-34.8-21.1-53.4-13.1L27.7 329.9c-20.4 8.7-31.5 30.7-26.6 52.3l21.7 94.2c4.8 20.9 23.2 35.5 44.6 35.5C312.3 512 512 313.7 512 67.5c0-21.4-14.6-39.8-35.5-44.6zM69.3 464l-20.9-90.7 98.2-42.1 55.7 68.1c98.8-46.4 150.6-98 197-197l-68.1-55.7 42.1-98.2L464 69.3C463 286.9 286.9 463 69.3 464z"/>
</symbol>
<symbol id="question-circle-regular-nysed" viewBox="0 0 512 512">
<path d="M256 8C119 8 8 119.1 8 256c0 137 111 248 248 248s248-111 248-248C504 119.1 393 8 256 8zm0 448c-110.5 0-200-89.4-200-200c0-110.5 89.5-200 200-200c110.5 0 200 89.5 200 200s-89.4 200-200 200zm107.2-255.2c0 67.1-72.4 68.1-72.4 92.9V300c0 6.6-5.4 12-12 12h-45.6c-6.6 0-12-5.4-12-12v-8.7c0-35.7 27.1-50 47.6-61.5c17.6-9.8 28.3-16.5 28.3-29.6c0-17.2-22-28.7-39.8-28.7c-23.2 0-33.9 11-48.9 30c-4.1 5.1-11.5 6.1-16.7 2.1l-27.8-21.1c-5.1-3.9-6.3-11.1-2.6-16.4c23.6-34.7 53.7-54.2 100.6-54.2c49.1 0 101.5 38.3 101.5 88.8zM298 368c0 23.2-18.8 42-42 42s-42-18.8-42-42 18.8-42 42-42 42 18.8 42 42z"/>
</symbol>
<symbol id="books-regular-nysed" viewBox="0 0 576 512">
<path d="M575.5 454.6L458.6 11.9C456.3 3.4 447.5-1.7 439 .5L423.5 4.7c-7.5 2-12.4 9.1-11.8 16.5c-11.5 7.4-64.2 21.6-77.9 20.9c-3.2-6.7-11-10.4-18.5-8.4l-11.3 3V32c0-17.7-14.3-32-40-32H24C14.3 0 0 14.3 0 32v448c0 17.7 14.3 32 24 32h240c25.7 0 40-14.3 40-32V115.9l101.5 384.2c2.3 8.5 11.1 13.6 19.6 11.3l15.5-4.1c7.5-2 12.4-9.1 11.8-16.5c11.5-7.4 64.2-21.6 77.9-20.9c3.2 6.7 11 10.4 18.5 8.4l15.5-4.1c8.5-2.3 13.6-11.1 11.3-19.6zM128 464H48v-48h80v48zm0-96H48V144h80v224zm0-272H48V48h80v48zm128 368h-80v-48h80v48zm0-96h-80V144h80v224zm0-272h-80V48h80v48zm186 355L344.7 81.7c16.8-1.8 60.7-13.4 77.3-20.7l97.2 369.3c-16.8 1.8-60.7 13.4-77.3 20.7z"/>
</symbol>
<symbol id="pasted-svg" viewBox="0 0 640 512">
<path d="M512 224A128 128 0 1 0 640 352 128 128 0 0 0 512 224zm64 144a5.3 5.3 0 0 1 -5.3 5.3h-37.3v37.3A5.3 5.3 0 0 1 528 416h-32a5.3 5.3 0 0 1 -5.3-5.3v-37.3h-37.3A5.3 5.3 0 0 1 448 368v-32a5.3 5.3 0 0 1 5.3-5.3h37.3v-37.3A5.3 5.3 0 0 1 496 288h32a5.3 5.3 0 0 1 5.3 5.3v37.3h37.3A5.3 5.3 0 0 1 576 336zM320 256A112 112 0 1 0 208 144 111.9 111.9 0 0 0 320 256zm0-176a64 64 0 1 1 -64 64 64.1 64.1 0 0 1 64-64zM96 224a80 80 0 1 0 -80-80 80 80 0 0 0 80 80zm0-112a32 32 0 1 1 -32 32 32.1 32.1 0 0 1 32-32zm278.3 320H176v-44.8a67.4 67.4 0 0 1 65.4-67.2 203.8 203.8 0 0 0 78.6 16 198.4 198.4 0 0 0 33.9-3.1 157.6 157.6 0 0 1 16-52.8c-1.8 .5-3.6 .7-5.3 1.2a152.5 152.5 0 0 1 -89.4 0c-47.1-14.3-100.3 .8-127.8 41.7a114.6 114.6 0 0 0 -19.6 64.3V432a48 48 0 0 0 48 48H417a160.3 160.3 0 0 1 -42.7-48zM154.8 270.3A83.7 83.7 0 0 0 108 256H84a84.1 84.1 0 0 0 -84 84 24 24 0 0 0 48 0 36.1 36.1 0 0 1 36-36h24a35.5 35.5 0 0 1 12.3 2.5 148.4 148.4 0 0 1 34.5-36.2z"/>
</symbol>
<symbol id="id-card-alt-regular-nysed" viewBox="0 0 576 512">
<path d="M512 64H368V32c0-17.7-14.3-32-32-32h-96c-17.7 0-32 14.3-32 32v32H64C28.7 64 0 92.7 0 128v320c0 35.3 28.7 64 64 64h448c35.3 0 64-28.7 64-64V128c0-35.3-28.7-64-64-64zM256 48h64v64h-64V48zm272 400c0 8.8-7.2 16-16 16H399.2c.2-1.1 .8-2.1 .8-3.2v-19.2c0-31.8-30.1-57.6-67.2-57.6c-10.8 0-18.7 8-44.8 8c-26.9 0-33.4-8-44.8-8c-37.1 0-67.2 25.8-67.2 57.6v19.2c0 1.1 .5 2.1 .8 3.2H64c-8.8 0-16-7.2-16-16V128c0-8.8 7.2-16 16-16h144v48h160v-48h144c8.8 0 16 7.2 16 16v320zM288 224c-35.3 0-64 28.7-64 64s28.7 64 64 64 64-28.7 64-64-28.7-64-64-64z"/>
</symbol>
<symbol id="book-regular-nysed" viewBox="0 0 448 512">
<path d="M128 152v-32c0-4.4 3.6-8 8-8h208c4.4 0 8 3.6 8 8v32c0 4.4-3.6 8-8 8H136c-4.4 0-8-3.6-8-8zm8 88h208c4.4 0 8-3.6 8-8v-32c0-4.4-3.6-8-8-8H136c-4.4 0-8 3.6-8 8v32c0 4.4 3.6 8 8 8zm299.1 159.7c-4.2 13-4.2 51.6 0 64.6c7.3 1.4 12.9 7.9 12.9 15.7v16c0 8.8-7.2 16-16 16H80c-44.2 0-80-35.8-80-80V80C0 35.8 35.8 0 80 0h352c8.8 0 16 7.2 16 16v368c0 7.8-5.5 14.2-12.9 15.7zM394 400H80c-17.6 0-32 14.4-32 32c0 17.7 14.3 32 32 32h314c-2.7-17.3-2.7-46.7 0-64zm6-352H80c-17.7 0-32 14.3-32 32v278.7c9.8-4.3 20.6-6.7 32-6.7h320V48z"/>
</symbol>
<symbol id="laptop-medical-regular-nysed" viewBox="0 0 640 512">
<path d="M624 352h-48V64A64.2 64.2 0 0 0 512 0H128A64.2 64.2 0 0 0 64 64v288H16A16 16 0 0 0 0 368v48c0 52.8 43.2 96 96 96h448c52.8 0 96-43.2 96-96v-48a16 16 0 0 0 -16-16zM112 64a16.2 16.2 0 0 1 16-16h384a16.2 16.2 0 0 1 16 16v288H112zm480 352a48.1 48.1 0 0 1 -48 48H96a48.1 48.1 0 0 1 -48-48v-16h180.9c5.6 9.4 15.4 16 27.1 16h128c11.7 0 21.5-6.6 27.1-16H592zM408 160h-56v-56a8 8 0 0 0 -8-8h-48a8 8 0 0 0 -8 8v56h-56a8 8 0 0 0 -8 8v48a8 8 0 0 0 8 8h56v56a8 8 0 0 0 8 8h48a8 8 0 0 0 8-8v-56h56a8 8 0 0 0 8-8v-48a8 8 0 0 0 -8-8z"/>
</symbol>
<symbol id="comment-alt-exclamation-regular-nysed" viewBox="0 0 512 512">
<path d="M256 256c-17.7 0-32 14.3-32 32s14.3 32 32 32 32-14.3 32-32-14.3-32-32-32zM448 0H64C28.7 0 0 28.7 0 64v288c0 35.3 28.7 64 64 64h96v84c0 7.1 5.8 12 12 12c2.4 0 4.9-.7 7.1-2.4L304 416h144c35.3 0 64-28.7 64-64V64c0-35.3-28.7-64-64-64zm16 352c0 8.8-7.2 16-16 16H288l-12.8 9.6L208 428v-60H64c-8.8 0-16-7.2-16-16V64c0-8.8 7.2-16 16-16h384c8.8 0 16 7.2 16 16v288zM284.7 96h-57.4c-10 0-17.6 9.1-15.7 18.9l18 96c1.4 7.6 8 13.1 15.7 13.1h21.4c7.7 0 14.3-5.5 15.7-13.1l18-96c1.9-9.8-5.7-18.9-15.7-18.9z"/>
</symbol>
<symbol id="ballot-check-regular-nysed" viewBox="0 0 448 512">
<path d="M344 360H200c-4.4 0-8 3.6-8 8v32c0 4.4 3.6 8 8 8h144c4.4 0 8-3.6 8-8v-32c0-4.4-3.6-8-8-8zm-232 56h32c8.8 0 16-7.2 16-16v-32c0-8.8-7.2-16-16-16h-32c-8.8 0-16 7.2-16 16v32c0 8.8 7.2 16 16 16zm0-256h32c8.8 0 16-7.2 16-16v-32c0-8.8-7.2-16-16-16h-32c-8.8 0-16 7.2-16 16v32c0 8.8 7.2 16 16 16zm88-8h144c4.4 0 8-3.6 8-8v-32c0-4.4-3.6-8-8-8H200c-4.4 0-8 3.6-8 8v32c0 4.4 3.6 8 8 8zM416 0H32C14.3 0 0 14.3 0 32v448c0 17.7 14.3 32 32 32h384c17.7 0 32-14.3 32-32V32c0-17.7-14.3-32-32-32zm-16 464H48V48h352v416zM134.6 286.4c2.1 2.1 5.5 2.1 7.6 0l64.2-63.6c2.1-2.1 2.1-5.5 0-7.6l-12.6-12.7c-2.1-2.1-5.5-2.1-7.6 0l-47.6 47.2-20.6-20.9c-2.1-2.1-5.5-2.1-7.6 0l-12.7 12.6c-2.1 2.1-2.1 5.5 0 7.6l36.9 37.4zM344 232H237.4c-1.9 5-4.6 9.7-8.5 13.5L194.2 280H344c4.4 0 8-3.6 8-8v-32c0-4.4-3.6-8-8-8z"/>
</symbol>
<symbol id="list-regular-nysed" viewBox="0 0 512 512">
<path d="M80 48H16A16 16 0 0 0 0 64v64a16 16 0 0 0 16 16h64a16 16 0 0 0 16-16V64A16 16 0 0 0 80 48zm0 160H16A16 16 0 0 0 0 224v64a16 16 0 0 0 16 16h64a16 16 0 0 0 16-16v-64a16 16 0 0 0 -16-16zm0 160H16A16 16 0 0 0 0 384v64a16 16 0 0 0 16 16h64a16 16 0 0 0 16-16v-64a16 16 0 0 0 -16-16zm416-136H176a16 16 0 0 0 -16 16v16a16 16 0 0 0 16 16h320a16 16 0 0 0 16-16v-16a16 16 0 0 0 -16-16zm0 160H176a16 16 0 0 0 -16 16v16a16 16 0 0 0 16 16h320a16 16 0 0 0 16-16v-16a16 16 0 0 0 -16-16zm0-320H176a16 16 0 0 0 -16 16v16a16 16 0 0 0 16 16h320a16 16 0 0 0 16-16V88a16 16 0 0 0 -16-16z"/>
</symbol>
<symbol id="question-nysed" viewBox="0 0 384 512">
<path d="M200.3 0C124 0 69.8 31.6 28.2 93.3C14 114.4 18.7 143 39 158.4l42 31.9c20.7 15.7 50.3 12.2 66.7-8.5c21.5-27.2 28.4-32 46.1-32c10.2 0 25.3 7 25.3 18.2c0 25.7-109.3 20.7-109.3 122.3V304c0 16 7.9 30.2 20 38.9C109.1 360.5 96 386.8 96 416c0 52.9 43.1 96 96 96s96-43.1 96-96c0-29.2-13.1-55.5-33.8-73.1c12.1-8.7 20-22.9 20-38.9v-4.7c25.4-19 104.3-44.5 104.3-139.4C378.4 68.8 288.4 0 200.3 0zM192 480c-35.3 0-64-28.7-64-64s28.7-64 64-64 64 28.7 64 64-28.7 64-64 64zm50.1-186.4V304c0 8.8-7.2 16-16 16h-68.3c-8.8 0-16-7.2-16-16v-13.7c0-86.8 109.3-57.3 109.3-122.3c0-32-31.7-50.2-57.3-50.2c-33.8 0-49.2 16.2-71.2 44.1c-5.4 6.8-15.3 8.1-22.2 2.8l-42-31.9c-6.8-5.1-8.4-14.6-3.6-21.7C88.9 60.5 132.4 32 200.3 32c70.7 0 146.1 55.2 146.1 127.9c0 96.6-104.3 98-104.3 133.7z"/>
</symbol>
<symbol id="id-card-regular-nysed" viewBox="0 0 576 512">
<path d="M528 32H48C21.5 32 0 53.5 0 80v352c0 26.5 21.5 48 48 48h480c26.5 0 48-21.5 48-48V80c0-26.5-21.5-48-48-48zm0 400H303.2c.9-4.5 .8 3.6 .8-22.4c0-31.8-30.1-57.6-67.2-57.6c-10.8 0-18.7 8-44.8 8c-26.9 0-33.4-8-44.8-8c-37.1 0-67.2 25.8-67.2 57.6c0 26-.2 17.9 .8 22.4H48V144h480v288zm-168-80h112c4.4 0 8-3.6 8-8v-16c0-4.4-3.6-8-8-8H360c-4.4 0-8 3.6-8 8v16c0 4.4 3.6 8 8 8zm0-64h112c4.4 0 8-3.6 8-8v-16c0-4.4-3.6-8-8-8H360c-4.4 0-8 3.6-8 8v16c0 4.4 3.6 8 8 8zm0-64h112c4.4 0 8-3.6 8-8v-16c0-4.4-3.6-8-8-8H360c-4.4 0-8 3.6-8 8v16c0 4.4 3.6 8 8 8zm-168 96c35.3 0 64-28.7 64-64s-28.7-64-64-64-64 28.7-64 64 28.7 64 64 64z"/>
</symbol>
<symbol id="vial-regular-nysed" viewBox="0 0 480 512">
<path d="M477.7 186.1L309.9 18.3c-1.6-1.6-3.6-2.3-5.7-2.3c-2 0-4.1 .8-5.7 2.3l-22.3 22.3c-3.1 3.1-3.1 8.2 0 11.3L287.5 63 30.1 320.4c-40.1 40.1-40.1 105.4 0 145.5c40.1 40 105.3 40.1 145.5 0L433 208.5l11.1 11.1c1.6 1.6 3.6 2.3 5.7 2.3s4.1-.8 5.7-2.3l22.3-22.3c3-3 3-8.1-.1-11.2zM141.6 432c-21.3 21.3-56.1 21.5-77.6 0c-21.4-21.4-21.4-56.2 0-77.6l50.4-50.4h155.2l-128 128zm176-176H162.4L321 97.4l77.6 77.6-81 81z"/>
</symbol>
<symbol id="badge-check-regular-nysed" viewBox="0 0 512 512">
<path d="M332.7 178.4c-3.9-3.9-10.1-3.9-14-.1l-87.4 86.7-37.9-38.2c-3.8-3.9-10.1-3.9-14-.1l-23.4 23.2c-3.9 3.9-3.9 10.1-.1 14l68.1 68.6c3.9 3.9 10.1 3.9 14 .1l117.8-116.8c3.9-3.9 3.9-10.1 .1-14l-23.2-23.4zM512 256c0-36.5-18.8-68.4-46.7-86.7c6.8-32.9-2.7-68.7-28.3-94.3c-25.6-25.7-61.5-35.1-94.3-28.3C324.2 18.7 292.3 0 256 0s-68.3 18.7-86.7 46.7C136.4 39.9 100.6 49.4 75 75c-25.7 25.6-35.1 61.5-28.3 94.3C18.6 187.8 0 219.8 0 256c0 36.3 18.7 68.3 46.7 86.7c-6.8 32.9 2.7 68.7 28.3 94.3c25.6 25.7 61.2 35.1 94.3 28.3c18.5 28.1 50.5 46.7 86.7 46.7c36.4 0 68.3-18.8 86.7-46.7c33.1 6.8 68.7-2.7 94.3-28.3c25.7-25.6 35.1-61.5 28.3-94.3c28.1-18.5 46.7-50.5 46.7-86.7zm-108.3 61.3c9.1 19.9 30.3 54.8-.7 85.8c-28 28-55.3 14.5-85.8 .7c-7.7 20.6-17.3 60.2-61.2 60.2c-45.3 0-54.7-42.8-61.2-60.2c-21.1 9.6-54.9 30.2-85.9-.8c-32-32-8.4-68.9-.7-85.8C87.6 309.5 48 299.9 48 256c0-45.3 42.8-54.7 60.3-61.3c-9.1-19.9-30.3-54.8 .7-85.8c32-32 68.9-8.4 85.8-.7C202.5 87.6 212.1 48 256 48c45.3 0 54.7 42.8 61.2 60.4c19.9-9.1 54.8-30.3 85.8 .7c32 32 8.4 68.9 .7 85.8c20.6 7.7 60.2 17.3 60.2 61.2c0 45.3-42.8 54.7-60.2 61.2z"/>
</symbol>
<symbol id="info-nysed" viewBox="0 0 384 512">
<path d="M208 368.7V208c0-15.5-7.4-29.3-18.8-38.1C210.4 152.3 224 125.7 224 96c0-52.9-43.1-96-96-96S32 43.1 32 96c0 24.6 9.3 47 24.5 64H56c-26.5 0-48 21.5-48 48v48c0 23.7 17.3 43.5 40 47.3v65.3C25.3 372.5 8 392.3 8 416v48c0 26.5 21.5 48 48 48h144c26.5 0 48-21.5 48-48v-48c0-23.7-17.3-43.5-40-47.3zM128 32c35.3 0 64 28.7 64 64s-28.7 64-64 64-64-28.7-64-64 28.7-64 64-64zm88 432c0 8.8-7.2 16-16 16H56c-8.8 0-16-7.2-16-16v-48c0-8.8 7.2-16 16-16h24V272H56c-8.8 0-16-7.2-16-16v-48c0-8.8 7.2-16 16-16h104c8.8 0 16 7.2 16 16v192h24c8.8 0 16 7.2 16 16v48z"/>
</symbol>
<symbol id="certificate-regular-nysed" viewBox="0 0 512 512">
<path d="M489.2 255.9c41-40.2 24.3-102.5-31.1-116.6C473.4 85.3 427.9 38 372.6 53.8C358.4-1.8 295.3-17.9 256 22.6C242.4 8.7 227 0 205.7 0c-29.4 0-57.1 17.9-66.3 53.8c-55-15.7-101 31-85.5 85.5c-55.3 14.1-72.3 76.4-31.1 116.6c-40.9 40.1-24.4 102.5 31.1 116.6c-15.5 54.5 30.6 101.2 85.5 85.5c14.3 56.2 77 71.6 116.6 31.2c39.5 40.4 102.3 24.8 116.6-31.2c55 15.7 100.9-31.2 85.5-85.5c55.3-14.1 72.3-76.4 31.1-116.6zM458 292.5c11.1 10.5 6 29.3-8.7 32.8l-50.9 13 14.3 50.4c4.1 14.5-9.6 28.2-24.1 24.1l-50.4-14.4-13 50.9c-3.5 14.8-22.6 19.6-32.8 8.7L256 420.6 219.4 458c-10.3 10.8-29.2 6.4-32.8-8.7l-13-50.9-50.4 14.4c-14.5 4.1-28.2-9.6-24.1-24.1l14.3-50.4-50.9-13c-14.6-3.5-19.8-22.2-8.7-32.8l37.4-36.6-37.4-36.6c-11.1-10.5-6-29.3 8.7-32.8l50.9-13-14.3-50.4c-4.1-14.5 9.6-28.2 24.1-24.1l50.4 14.4 13-50.9c3.5-14.5 22.5-19.5 32.8-8.7L256 91.5l36.6-37.7c10.4-11 29.3-5.7 32.8 8.7l13 50.9 50.4-14.4c14.5-4.1 28.2 9.6 24.1 24.1l-14.3 50.4 50.9 13c14.6 3.5 19.8 22.2 8.7 32.8l-37.4 36.6 37.4 36.6z"/>
</symbol>
<symbol id="prescription-bottle-regular-nysed" viewBox="0 0 448 512">
<path d="M416 0H32C14.3 0 0 14.3 0 32v96c0 8.8 7.2 16 16 16h16v336c0 17.7 14.3 32 32 32h320c17.7 0 32-14.3 32-32V144h16c8.8 0 16-7.2 16-16V32c0-17.7-14.3-32-32-32zM48 48h352v48H48V48zm320 416H80v-40h88c4.4 0 8-3.6 8-8v-32c0-4.4-3.6-8-8-8H80v-48h88c4.4 0 8-3.6 8-8v-32c0-4.4-3.6-8-8-8H80v-48h88c4.4 0 8-3.6 8-8v-32c0-4.4-3.6-8-8-8H80v-40h288v320z"/>
</symbol>
<symbol id="address-card-regular-nysed" viewBox="0 0 576 512">
<path d="M528 32H48C21.5 32 0 53.5 0 80v352c0 26.5 21.5 48 48 48h480c26.5 0 48-21.5 48-48V80c0-26.5-21.5-48-48-48zm0 400H48V80h480v352zM208 256c35.3 0 64-28.7 64-64s-28.7-64-64-64-64 28.7-64 64 28.7 64 64 64zm-89.6 128h179.2c12.4 0 22.4-8.6 22.4-19.2v-19.2c0-31.8-30.1-57.6-67.2-57.6c-10.8 0-18.7 8-44.8 8c-26.9 0-33.4-8-44.8-8c-37.1 0-67.2 25.8-67.2 57.6v19.2c0 10.6 10 19.2 22.4 19.2zM360 320h112c4.4 0 8-3.6 8-8v-16c0-4.4-3.6-8-8-8H360c-4.4 0-8 3.6-8 8v16c0 4.4 3.6 8 8 8zm0-64h112c4.4 0 8-3.6 8-8v-16c0-4.4-3.6-8-8-8H360c-4.4 0-8 3.6-8 8v16c0 4.4 3.6 8 8 8zm0-64h112c4.4 0 8-3.6 8-8v-16c0-4.4-3.6-8-8-8H360c-4.4 0-8 3.6-8 8v16c0 4.4 3.6 8 8 8z"/>
</symbol>
<symbol id="books-medical-regular-nysed" viewBox="0 0 640 512">
<path d="M256 256A128 128 0 1 0 128 384 128 128 0 0 0 256 256zm-149.3 58.7v-37.3H69.3A5.3 5.3 0 0 1 64 272v-32a5.3 5.3 0 0 1 5.3-5.3h37.3v-37.3A5.3 5.3 0 0 1 112 192h32a5.3 5.3 0 0 1 5.3 5.3v37.3h37.3A5.3 5.3 0 0 1 192 240v32a5.3 5.3 0 0 1 -5.3 5.3h-37.3v37.3A5.3 5.3 0 0 1 144 320h-32a5.3 5.3 0 0 1 -5.3-5.3zm532.8 139.9L522.6 11.9A16 16 0 0 0 503 .6l-15.5 4.1a16 16 0 0 0 -11.8 16.5c-11.5 7.4-64.2 21.6-77.9 20.9a16 16 0 0 0 -18.5-8.4l-11.3 3V32c0-17.7-14.3-32-40-32H88c-9.7 0-24 14.3-24 32v77.6c14.9-6.6 31.1-10.2 48-11.9V48h80v61.6A160.4 160.4 0 0 1 242 144h78v224h-78a160.4 160.4 0 0 1 -50 34.4V464h-80v-49.6c-16.9-1.7-33.1-5.4-48-11.9V480c0 17.7 14.3 32 24 32h240c25.7 0 40-14.3 40-32V115.9l101.5 384.2a16 16 0 0 0 19.6 11.3l15.5-4.1a16 16 0 0 0 11.8-16.5c11.5-7.4 64.2-21.6 77.9-20.9a16 16 0 0 0 18.5 8.4l15.5-4.1a16.1 16.1 0 0 0 11.3-19.6zM320 464h-80v-48h80zm0-368h-80V48h80zm186 355L408.7 81.7C425.5 79.9 469.5 68.3 486 61l97.3 369.3c-16.8 1.8-60.7 13.4-77.3 20.7z"/>
</symbol>
<symbol id="list-alt-regular-nysed" viewBox="0 0 512 512">
<path d="M464 32H48C21.5 32 0 53.5 0 80v352c0 26.5 21.5 48 48 48h416c26.5 0 48-21.5 48-48V80c0-26.5-21.5-48-48-48zm-6 400H54a6 6 0 0 1 -6-6V86a6 6 0 0 1 6-6h404a6 6 0 0 1 6 6v340a6 6 0 0 1 -6 6zm-42-92v24c0 6.6-5.4 12-12 12H204c-6.6 0-12-5.4-12-12v-24c0-6.6 5.4-12 12-12h200c6.6 0 12 5.4 12 12zm0-96v24c0 6.6-5.4 12-12 12H204c-6.6 0-12-5.4-12-12v-24c0-6.6 5.4-12 12-12h200c6.6 0 12 5.4 12 12zm0-96v24c0 6.6-5.4 12-12 12H204c-6.6 0-12-5.4-12-12v-24c0-6.6 5.4-12 12-12h200c6.6 0 12 5.4 12 12zm-252 12c0 19.9-16.1 36-36 36s-36-16.1-36-36 16.1-36 36-36 36 16.1 36 36zm0 96c0 19.9-16.1 36-36 36s-36-16.1-36-36 16.1-36 36-36 36 16.1 36 36zm0 96c0 19.9-16.1 36-36 36s-36-16.1-36-36 16.1-36 36-36 36 16.1 36 36z"/>
</symbol>
<symbol id="file-powerpoint-regular-nysed" viewBox="0 0 384 512">
<path d="M369.9 97.9L286 14C277 5 264.8-.1 252.1-.1H48C21.5 0 0 21.5 0 48v416c0 26.5 21.5 48 48 48h288c26.5 0 48-21.5 48-48V131.9c0-12.7-5.1-25-14.1-34zM332.1 128H256V51.9l76.1 76.1zM48 464V48h160v104c0 13.3 10.7 24 24 24h104v288H48zm72-60V236c0-6.6 5.4-12 12-12h69.2c36.7 0 62.8 27 62.8 66.3c0 74.3-68.7 66.5-95.5 66.5V404c0 6.6-5.4 12-12 12H132c-6.6 0-12-5.4-12-12zm48.5-87.4h23c7.9 0 13.9-2.4 18.1-7.2c8.5-9.8 8.4-28.5 .1-37.8c-4.1-4.6-9.9-7-17.4-7h-23.9v52z"/>
</symbol>
<symbol id="calendar-week-regular-nysed" viewBox="0 0 448 512">
<path d="M112 304h224c8.8 0 16-7.2 16-16v-64c0-8.8-7.2-16-16-16H112c-8.8 0-16 7.2-16 16v64c0 8.8 7.2 16 16 16zM400 64h-48V16c0-8.8-7.2-16-16-16h-32c-8.8 0-16 7.2-16 16v48H160V16c0-8.8-7.2-16-16-16h-32c-8.8 0-16 7.2-16 16v48H48C21.5 64 0 85.5 0 112v352c0 26.5 21.5 48 48 48h352c26.5 0 48-21.5 48-48V112c0-26.5-21.5-48-48-48zm0 394c0 3.3-2.7 6-6 6H54c-3.3 0-6-2.7-6-6V160h352v298z"/>
</symbol>
<symbol id="clinic-medical-regular-nysed" viewBox="0 0 576 512">
<path d="M256 200v56h-56a8 8 0 0 0 -8 8v48a8 8 0 0 0 8 8h56v56a8 8 0 0 0 8 8h48a8 8 0 0 0 8-8v-56h56a8 8 0 0 0 8-8v-48a8 8 0 0 0 -8-8h-56v-56a8 8 0 0 0 -8-8h-48a8 8 0 0 0 -8 8zm314.2 15.4L323.9 13a56 56 0 0 0 -71.7 0L5.8 215.4a16 16 0 0 0 -2 22.5L14 250.3a16 16 0 0 0 22.5 2L64 229.7V288h-.3v208a16.1 16.1 0 0 0 16.1 16H496a16 16 0 0 0 16-16V229.7l27.5 22.6a16 16 0 0 0 22.5-2l10.3-12.3a16 16 0 0 0 -2.1-22.6zM464 224h-.2v240H111.7V194.5l.3-.3v-4L288 45.7l176 144.6z"/>
</symbol>
<symbol id="check-square-regular-nysed" viewBox="0 0 448 512">
<path d="M400 32H48C21.5 32 0 53.5 0 80v352c0 26.5 21.5 48 48 48h352c26.5 0 48-21.5 48-48V80c0-26.5-21.5-48-48-48zm0 400H48V80h352v352zm-35.9-241.7L191.5 361.5c-4.7 4.7-12.3 4.6-17-.1l-90.8-91.5c-4.7-4.7-4.6-12.3 .1-17l22.7-22.5c4.7-4.7 12.3-4.6 17 .1l59.8 60.3 141.4-140.2c4.7-4.7 12.3-4.6 17 .1l22.5 22.7c4.7 4.7 4.6 12.3-.1 17z"/>
</symbol>
</svg>