<svg xmlns="http://www.w3.org/2000/svg">
<symbol id="info-light-outline" viewBox="0 0 487 512">
<path d="M315.7 367.8V209.5c0-15.3-6.7-28.9-17-37.5c19.2-17.4 31.4-43.5 31.4-72.8c0-52.1-38.8-94.5-86.5-94.5s-86.5 42.4-86.5 94.5c0 24.2 8.4 46.3 22.1 63h-.5c-23.9 0-43.3 21.2-43.3 47.3v47.3c0 23.4 15.6 42.9 36 46.6v64.3c-20.4 3.8-36 23.2-36 46.6v47.3c0 26.1 19.4 47.3 43.3 47.3h129.8c23.9 0 43.3-21.2 43.3-47.3v-47.3c0-23.4-15.6-42.9-36-46.6zM243.6 36.2c31.9 0 57.7 28.2 57.7 63s-25.8 63-57.7 63s-57.7-28.2-57.7-63s25.8-63 57.7-63zm79.3 425.4c0 8.7-6.5 15.8-14.4 15.8H178.7c-8 0-14.4-7.1-14.4-15.8v-47.3c0-8.7 6.5-15.8 14.4-15.8h21.6V272.6h-21.6c-8 0-14.4-7.1-14.4-15.8v-47.3c0-8.7 6.5-15.8 14.4-15.8h93.7c8 0 14.4 7.1 14.4 15.8v189.1h21.6c8 0 14.4 7.1 14.4 15.8z"/>
</symbol>
<symbol id="info-nysed" viewBox="0 0 384 512">
<path d="M208 368.7V208c0-15.5-7.4-29.3-18.8-38.1C210.4 152.3 224 125.7 224 96c0-52.9-43.1-96-96-96S32 43.1 32 96c0 24.6 9.3 47 24.5 64H56c-26.5 0-48 21.5-48 48v48c0 23.7 17.3 43.5 40 47.3v65.3C25.3 372.5 8 392.3 8 416v48c0 26.5 21.5 48 48 48h144c26.5 0 48-21.5 48-48v-48c0-23.7-17.3-43.5-40-47.3zM128 32c35.3 0 64 28.7 64 64s-28.7 64-64 64-64-28.7-64-64 28.7-64 64-64zm88 432c0 8.8-7.2 16-16 16H56c-8.8 0-16-7.2-16-16v-48c0-8.8 7.2-16 16-16h24V272H56c-8.8 0-16-7.2-16-16v-48c0-8.8 7.2-16 16-16h104c8.8 0 16 7.2 16 16v192h24c8.8 0 16 7.2 16 16v48z"/>
</symbol>
<symbol id="question-nysed" viewBox="0 0 384 512">
<path d="M200.3 0C124 0 69.8 31.6 28.2 93.3C14 114.4 18.7 143 39 158.4l42 31.9c20.7 15.7 50.3 12.2 66.7-8.5c21.5-27.2 28.4-32 46.1-32c10.2 0 25.3 7 25.3 18.2c0 25.7-109.3 20.7-109.3 122.3V304c0 16 7.9 30.2 20 38.9C109.1 360.5 96 386.8 96 416c0 52.9 43.1 96 96 96s96-43.1 96-96c0-29.2-13.1-55.5-33.8-73.1c12.1-8.7 20-22.9 20-38.9v-4.7c25.4-19 104.3-44.5 104.3-139.4C378.4 68.8 288.4 0 200.3 0zM192 480c-35.3 0-64-28.7-64-64s28.7-64 64-64 64 28.7 64 64-28.7 64-64 64zm50.1-186.4V304c0 8.8-7.2 16-16 16h-68.3c-8.8 0-16-7.2-16-16v-13.7c0-86.8 109.3-57.3 109.3-122.3c0-32-31.7-50.2-57.3-50.2c-33.8 0-49.2 16.2-71.2 44.1c-5.4 6.8-15.3 8.1-22.2 2.8l-42-31.9c-6.8-5.1-8.4-14.6-3.6-21.7C88.9 60.5 132.4 32 200.3 32c70.7 0 146.1 55.2 146.1 127.9c0 96.6-104.3 98-104.3 133.7z"/>
</symbol>
</svg>